<?xml version="1.0" standalone="no"?>
<!DOCTYPE svg PUBLIC "-//W3C//DTD SVG 20010904//EN"
 "http://www.w3.org/TR/2001/REC-SVG-20010904/DTD/svg10.dtd">
<svg version="1.0" xmlns="http://www.w3.org/2000/svg"
 width="930.000000pt" height="930.000000pt" viewBox="0 0 930.000000 930.000000"
 preserveAspectRatio="xMidYMid meet">
<metadata>
Created by potrace 1.11, written by Peter Selinger 2001-2013
</metadata>
<g transform="translate(0.000000,930.000000) scale(0.100000,-0.100000)"
fill="#000000" stroke="none">
<path d="M2313 8658 c-16 -36 -725 -2230 -721 -2232 2 -2 687 393 1523 876
972 562 1527 877 1540 875 11 -2 702 -398 1535 -879 833 -482 1516 -875 1517
-874 3 3 -724 2246 -730 2252 -2 2 -521 -106 -1153 -241 -631 -135 -1161 -245
-1176 -245 -21 0 -2183 456 -2304 486 -14 4 -23 -1 -31 -18z"/>
<path d="M791 5535 c-432 -478 -785 -877 -785 -887 -1 -10 333 -388 784 -889
l785 -870 3 881 c1 485 1 1276 0 1758 l-3 876 -784 -869z"/>
<path d="M7720 4645 l1 -1760 22 26 c12 15 366 408 787 874 421 466 766 852
768 859 2 9 -1431 1610 -1554 1736 l-24 25 0 -1760z"/>
<path d="M2670 5406 c0 -3 208 -202 463 -444 254 -241 501 -477 550 -523 l87
-84 0 -271 0 -270 43 -36 c66 -56 229 -188 349 -283 35 -27 70 -57 79 -66 8
-8 53 -44 100 -79 46 -35 89 -69 94 -75 6 -6 30 -27 55 -46 25 -18 76 -60 114
-91 l68 -57 47 37 c25 20 51 42 56 48 6 6 48 40 95 75 47 36 96 74 110 86 40
34 120 99 185 149 33 26 65 52 70 58 6 7 39 34 75 61 36 27 70 54 75 61 6 6
32 28 59 50 28 21 63 51 80 67 17 15 33 27 36 27 3 0 4 125 2 277 l-3 278 128
124 c70 68 311 297 536 509 224 212 405 387 402 390 -2 3 3 11 13 18 14 11
-81 13 -560 14 l-578 0 0 -800 0 -800 -835 0 -835 0 0 800 0 800 -580 0 c-319
0 -580 -2 -580 -4z"/>
<path d="M1590 2866 c0 -8 720 -2228 726 -2238 3 -4 12 -8 20 -8 9 0 522 108
1141 240 619 132 1146 240 1171 240 25 0 551 -108 1170 -240 619 -132 1133
-240 1142 -240 10 0 21 8 25 18 17 44 723 2227 721 2229 -1 2 -664 -379 -1472
-845 -808 -466 -1495 -863 -1527 -881 l-57 -33 -58 33 c-41 23 -2483 1431
-2959 1706 -24 14 -43 22 -43 19z"/>
</g>
</svg>
